<svg xmlns="http://www.w3.org/2000/svg" viewBox="0 0 28.799 28.38">
    <g id="Calque_1-2">
        <path stroke="#161615"
              d="M408.151,230.526h26.555a.938.938,0,0,1,.938.937h0a.938.938,0,0,1-.938.938H408.151a.938.938,0,0,1-.938-.938h0A.938.938,0,0,1,408.151,230.526Z"
              transform="translate(-406.845 -228.026)"/>
        <ellipse stroke="#161615" cx="3.454" cy="3.438" rx="3.454" ry="3.438" transform="translate(5.318)"/>
        <path stroke="#161615"
              d="M408.151,241.278h26.555a.938.938,0,0,1,.938.937h0a.938.938,0,0,1-.938.938H408.151a.938.938,0,0,1-.938-.938h0A.938.938,0,0,1,408.151,241.278Z"
              transform="translate(-406.845 -228.026)"/>
        <ellipse stroke="#161615" cx="3.454" cy="3.438" rx="3.454" ry="3.438" transform="translate(16.163 10.752)"/>
        <path stroke="#161615"
              d="M408.151,252.03h26.555a.938.938,0,0,1,.938.937h0a.938.938,0,0,1-.938.938H408.151a.938.938,0,0,1-.938-.938h0A.938.938,0,0,1,408.151,252.03Z"
              transform="translate(-406.845 -228.026)"/>
        <ellipse stroke="#161615" cx="3.454" cy="3.438" rx="3.454" ry="3.438" transform="translate(0 21.504)"/>
    </g>
</svg>