<svg xmlns="http://www.w3.org/2000/svg" viewBox="0 0 58.64 48.76">
<g id="Calque_2" data-name="Calque 2">
<g id="Calque_1-2" data-name="Calque 1">
<path id="Tracé_2544" data-name="Tracé 2544" fill="none" stroke="#000" stroke-linecap="round" stroke-linejoin="round" stroke-width="2px" d="M1.2,47.74a.39.39,0,0,0,.36-.07,46.83,46.83,0,0,1,31-13.05,1.41,1.41,0,0,1,1,.37,1.3,1.3,0,0,1,.4.94v11.5a.33.33,0,0,0,.21.31l.35-.08,23.06-23a.34.34,0,0,0,0-.46h0L34.49,1.09A.37.37,0,0,0,34.14,1a.33.33,0,0,0-.21.31V12.89a1.31,1.31,0,0,1-1.25,1.32A33.21,33.21,0,0,0,1,47.44a.34.34,0,0,0,.2.3Z"/>
</g>
</g>
</svg>