<svg xmlns="http://www.w3.org/2000/svg" viewBox="0 0 49.78 49.32">
    <g id="Calque_2">
        <g id="Calque_1-2">
            <g id="Tracé_2642">
                <rect fill="currentColor" x="24.7" y="18.59" width="8.33" height="3.66" transform="translate(-5.99 26.39) rotate(-45)"/>
            </g>
            <g id="Tracé_2643">
                <rect fill="currentColor" x="-3.44" y="34.83" width="32.28" height="3.62" transform="translate(-22.18 19.68) rotate(-44.95)"/>
            </g>
            <g id="Tracé_2635">
                <path fill="currentColor" d="M42.71,5.32,39.89,8.16a1.29,1.29,0,0,0,0,1.82,1.26,1.26,0,0,0,.9.37A1.33,1.33,0,0,0,41.7,10l2.82-2.83a1.29,1.29,0,1,0-1.83-1.83Z"/>
            </g>
            <g id="Tracé_2636">
                <path fill="currentColor" d="M39.89,28.36l2.82,2.83a1.29,1.29,0,0,0,.91.37,1.32,1.32,0,0,0,.9-.37,1.3,1.3,0,0,0,0-1.83L41.7,26.53a1.3,1.3,0,0,0-1.84,1.83Z"/>
            </g>
            <g id="Tracé_2637">
                <path fill="currentColor" d="M22.48,10.36a1.32,1.32,0,0,0,.9-.38,1.27,1.27,0,0,0,0-1.82L20.56,5.33A1.29,1.29,0,0,0,18.63,7l.12.12L21.57,10A1.25,1.25,0,0,0,22.48,10.36Z"/>
            </g>
            <g id="Tracé_2638">
                <path fill="currentColor" d="M43.33,18.34a1.3,1.3,0,0,0,1.29,1.3h3.87a1.3,1.3,0,0,0,0-2.59H44.62A1.3,1.3,0,0,0,43.33,18.34Z"/>
            </g>
            <g id="Tracé_2639">
                <path fill="currentColor" d="M13.54,18.34a1.3,1.3,0,0,0,1.29,1.3h4a1.3,1.3,0,0,0,0-2.59h-4A1.3,1.3,0,0,0,13.54,18.34Z"/>
            </g>
            <g id="Tracé_2640">
                <path fill="currentColor" d="M31.47,6.59A1.28,1.28,0,0,0,32.75,5.3v-4a1.29,1.29,0,0,0-2.58,0v4a1.29,1.29,0,0,0,1.29,1.29Z"/>
            </g>
            <g id="Tracé_2641">
                <path fill="currentColor" d="M30.18,31.29V35a1.29,1.29,0,1,0,2.58,0V31.29a1.29,1.29,0,1,0-2.58,0Z"/>
            </g>
        </g>
    </g>
</svg>