<svg xmlns="http://www.w3.org/2000/svg" viewBox="0 0 53.54 51.01">
    <g id="Calque_2">
        <g id="Calque_1-2">
            <g id="Tracé_720">
                <path fill="currentColor" d="M50.17,24.33a3.35,3.35,0,0,0-3.33,2.81H31.68a5.57,5.57,0,0,0-.23-1.06l12.21-5.35a1.88,1.88,0,0,0,2.21.6,1.83,1.83,0,0,0,1-2.37l0,0a1.9,1.9,0,0,0-2.45-1A1.85,1.85,0,0,0,43.3,20L31.12,25.32a6.93,6.93,0,0,0-.56-.85L35.27,20a3.39,3.39,0,0,0,4.44-.23,3.26,3.26,0,0,0,.07-4.61.46.46,0,0,0-.07-.07,3.39,3.39,0,0,0-4.76,0,3.27,3.27,0,0,0-.3,4.31L30,23.87A5.63,5.63,0,0,0,28.48,23L34,10.16A1.89,1.89,0,0,0,36,9a1.83,1.83,0,0,0-1-2.39l0,0a1.89,1.89,0,0,0-2.45,1,1.83,1.83,0,0,0,.69,2.24l-5.53,12.9a3.57,3.57,0,0,0-.56-.07v-16a3.37,3.37,0,1,0-.85,0v16a5,5,0,0,0-1.33.29L18.52,9.83a1.81,1.81,0,0,0,.62-2.17,1.9,1.9,0,0,0-2.46-1,1.83,1.83,0,0,0-1,2.38v0a1.9,1.9,0,0,0,2.11,1.11l6.4,13.19a6.36,6.36,0,0,0-.69.46l-4.71-4.59a3.26,3.26,0,0,0-.29-4.31,3.42,3.42,0,0,0-4.77,0,3.27,3.27,0,0,0-.07,4.61.23.23,0,0,1,.07.07,3.38,3.38,0,0,0,4.45.23l4.67,4.59a4.46,4.46,0,0,0-.61.88L3.73,17.65a1.84,1.84,0,0,0-1.13-2,1.91,1.91,0,0,0-2.46,1,1.84,1.84,0,0,0,1,2.4l0,0a1.93,1.93,0,0,0,2.29-.68l18.43,7.65a5.8,5.8,0,0,0-.24,1.08H8.78a3.29,3.29,0,1,0,0,.86H21.65a4.48,4.48,0,0,0,.3,1.35l-5.42,2.38a1.89,1.89,0,0,0-2.21-.61,1.84,1.84,0,0,0-1,2.38l0,0a1.89,1.89,0,0,0,2.45,1,1.87,1.87,0,0,0,1.14-2.07l5.41-2.37a6.24,6.24,0,0,0,.46.68l-12.55,12a3.41,3.41,0,0,0-4.39.3,3.25,3.25,0,0,0-.07,4.6.46.46,0,0,0,.07.07,3.39,3.39,0,0,0,4.76,0,3.22,3.22,0,0,0,.24-4.36l12.56-12a3.87,3.87,0,0,0,.45.35l-3.34,7.76a1.89,1.89,0,0,0-2,1.11,1.83,1.83,0,0,0,1,2.4l.05,0A1.89,1.89,0,0,0,22,42a1.85,1.85,0,0,0-.68-2.25l3.27-7.63a5.1,5.1,0,0,0,1.67.44v9.24a3.37,3.37,0,1,0,.86,0V32.57a5.11,5.11,0,0,0,1.38-.31L36,47.69a1.82,1.82,0,0,0-.61,2.17,1.89,1.89,0,0,0,2.45,1,1.83,1.83,0,0,0,1-2.38v0a1.91,1.91,0,0,0-2.11-1.12l-7.5-15.45a4.27,4.27,0,0,0,.71-.49l13.24,13a3.27,3.27,0,0,0,.24,4.37,3.42,3.42,0,0,0,4.77,0,3.27,3.27,0,0,0,.07-4.61.23.23,0,0,1-.07-.07,3.42,3.42,0,0,0-4.4-.28l-13.25-13a5.18,5.18,0,0,0,.6-.87l6.43,2.66a1.86,1.86,0,0,0,1.14,2,1.89,1.89,0,0,0,2.45-1,1.83,1.83,0,0,0-1-2.39l0,0a1.93,1.93,0,0,0-2.29.68l-6.4-2.66A5.4,5.4,0,0,0,31.68,28H46.82a3.37,3.37,0,1,0,3.35-3.69Z"/>
            </g>
        </g>
    </g>
</svg>