<svg xmlns="http://www.w3.org/2000/svg" viewBox="0 0 28.86 23.51">
<g id="Calque_2">
<g id="Calque_1-2">
    <g id="Composant_139_1">
        <g id="Groupe_1535">
            <path id="Tracé_1554" fill="none" stroke="#000" stroke-linecap="round" stroke-linejoin="round" d="M27.4,10.2,23.91,6.71a3.29,3.29,0,0,0-2.32-1h-1v6.54a.53.53,0,0,0,.53.53h7.2v-.3A3.29,3.29,0,0,0,27.4,10.2Z"/>
            <line id="Ligne_420" fill="none" stroke="#000" stroke-linecap="round" stroke-linejoin="round" x1="10.98" y1="19.16" x2="18.22" y2="19.16"/>
            <path id="Tracé_1555" fill="none" stroke="#000" stroke-linecap="round" stroke-linejoin="round" d="M26,19.16h1.12A1.19,1.19,0,0,0,28.36,18h0V12.82h-7.2a.54.54,0,0,1-.54-.53V5.75H17.19v7.13H.5V18a1.19,1.19,0,0,0,1.19,1.2H3.17"/>
            <path id="Tracé_1556" fill="none" stroke="#000" stroke-linecap="round" stroke-linejoin="round" d="M17.19,5.75V1.27A.76.76,0,0,0,16.42.5H1.27a.77.77,0,0,0-.77.77h0V12.88H17.19Z"/>
            <circle id="Ellipse_4080" fill="none" stroke="#000" stroke-linecap="round" stroke-linejoin="round" cx="22.22" cy="19.16" r="3.85"/>
            <circle id="Ellipse_4081" fill="none" stroke="#000" stroke-linecap="round" stroke-linejoin="round" cx="22.22" cy="19.16" r="1.52"/>
            <circle id="Ellipse_4082" fill="none" stroke="#000" stroke-linecap="round" stroke-linejoin="round" cx="7.02" cy="19.16" r="3.85"/>
            <circle id="Ellipse_4083" fill="none" stroke="#000" stroke-linecap="round" stroke-linejoin="round" cx="7.02" cy="19.16" r="1.52"/>
        </g>
    </g>
</g>
</g>
</svg>