<svg xmlns="http://www.w3.org/2000/svg" viewBox="0 0 25.08 27.94">
    <g id="Calque_2">
        <g id="Calque_1-2">
            <rect fill="none" stroke="#000" stroke-linecap="round" stroke-linejoin="round" x="7.84" y="3.54" width="9.4" height="17.41" rx="4.7"/>
            <path fill="none" stroke="#000" stroke-linecap="round" stroke-linejoin="round" d="M19.58,16.07a7,7,0,0,1-14.07,0"/>
            <line fill="none" stroke="#000" stroke-linecap="round" stroke-linejoin="round" x1="12.54" y1="23.55" x2="12.54" y2="26.96"/>
            <line fill="none" stroke="#000" stroke-linecap="round" stroke-linejoin="round" x1="7.84" y1="27.44" x2="17.24" y2="27.44"/>
            <line fill="none" stroke="#000" stroke-linecap="round" stroke-linejoin="round" x1="7.84" y1="8.77" x2="10.65" y2="8.77"/>
            <line fill="none" stroke="#000" stroke-linecap="round" stroke-linejoin="round" x1="7.84" y1="11.15" x2="10.65" y2="11.15"/>
            <line fill="none" stroke="#000" stroke-linecap="round" stroke-linejoin="round" x1="7.84" y1="13.53" x2="10.65" y2="13.53"/>
            <line fill="none" stroke="#000" stroke-linecap="round" stroke-linejoin="round" x1="14.43" y1="8.77" x2="17.24" y2="8.77"/>
            <line fill="none" stroke="#000" stroke-linecap="round" stroke-linejoin="round" x1="14.43" y1="11.15" x2="17.24" y2="11.15"/>
            <line fill="none" stroke="#000" stroke-linecap="round" stroke-linejoin="round" x1="14.43" y1="13.53" x2="17.24" y2="13.53"/>
            <path fill="none" stroke="#000" stroke-linecap="round" stroke-linejoin="round" d="M3.41.5A6.84,6.84,0,0,0,.53,6.75"/>
            <path fill="none" stroke="#000" stroke-linecap="round" stroke-linejoin="round" d="M6.09,1.88a5,5,0,0,0-2.3,4.5"/>
            <path fill="none" stroke="#000" stroke-linecap="round" stroke-linejoin="round" d="M21.29,6.38A5,5,0,0,0,19,1.88"/>
            <path fill="none" stroke="#000" stroke-linecap="round" stroke-linejoin="round" d="M21.67.5a6.82,6.82,0,0,1,2.88,6.25"/>
        </g>
    </g>
</svg>