<svg xmlns="http://www.w3.org/2000/svg" viewBox="0 0 27.56 26.93">
    <g id="Calque_2">
        <g id="Calque_1-2">
            <g id="Composant_126_1">
                <g id="Groupe_1542">
                    <path id="Tracé_1561" fill="none" stroke="#000" stroke-linecap="round" stroke-linejoin="round" d="M13.78,10.92a2.13,2.13,0,0,0-2.13,2.13h0a2.19,2.19,0,0,0,0,.36,9.91,9.91,0,0,1,4.2,0,1.84,1.84,0,0,0,0-.33A2.13,2.13,0,0,0,13.78,10.92Z"/>
                </g>
                <g id="Groupe_1543">
                    <path id="Tracé_1562" fill="none" stroke="#000" stroke-linecap="round" stroke-linejoin="round" d="M6.87,20.46A6.25,6.25,0,0,1,12,16"/>
                    <path id="Tracé_1563" fill="none" stroke="#000" stroke-linecap="round" stroke-linejoin="round" d="M3.74,23.21a10,10,0,0,1,20.08,0"/>
                </g>
                <rect id="Rectangle_1924" fill="none" stroke="#000" stroke-linecap="round" stroke-linejoin="round" x="0.5" y="23.61" width="26.56" height="2.82"/>
                <g id="Groupe_1544">
                    <path id="Tracé_1564" fill="none" stroke="#000" stroke-linecap="round" stroke-linejoin="round" d="M22.49,4.8C22.49,6,21.16,6,21.16,7.15s1.33,1.18,1.33,2.35-1.33,1.18-1.33,2.36"/>
                </g>
                <g id="Groupe_1545">
                    <path id="Tracé_1565" fill="none" stroke="#000" stroke-linecap="round" stroke-linejoin="round" d="M7.61,1.17c0,1.18-1.33,1.18-1.33,2.35S7.61,4.7,7.61,5.88,6.28,7.05,6.28,8.23"/>
                </g>
                <g id="Groupe_1546">
                    <path id="Tracé_1566" fill="none" stroke="#000" stroke-linecap="round" stroke-linejoin="round" d="M15.29.5c0,1.15-1.3,1.15-1.3,2.3s1.3,1.15,1.3,2.31S14,6.26,14,7.42"/>
                </g>
            </g>
        </g>
    </g>
</svg>