<svg xmlns="http://www.w3.org/2000/svg" viewBox="0 0 29.22 16.85">
    <g id="Calque_2">
        <g id="Calque_1-2">
            <path fill="none" stroke="#000" stroke-linecap="round" stroke-linejoin="round" d="M24.83,8.42a3.89,3.89,0,0,1,3.89-3.88V.5H.5v4a3.89,3.89,0,1,1,0,7.77v4H28.72v-4A3.89,3.89,0,0,1,24.83,8.42Z"/>
            <polygon points="11.05 4.66 12.27 7.14 15.01 7.54 13.03 9.46 13.49 12.19 11.05 10.9 8.6 12.19 9.07 9.46 7.08 7.54 9.82 7.14 11.05 4.66"/>
            <line fill="none" stroke="#000" stroke-linecap="round" stroke-linejoin="round" x1="18.86" y1="0.5" x2="18.86" y2="4.06"/>
            <line fill="none" stroke="#000" stroke-linecap="round" stroke-linejoin="round" x1="18.86" y1="6.77" x2="18.86" y2="9.76"/>
            <line fill="none" stroke="#000" stroke-linecap="round" stroke-linejoin="round" x1="18.86" y1="12.47" x2="18.86" y2="16.03"/>
        </g>
    </g>
</svg>