<svg xmlns="http://www.w3.org/2000/svg" viewBox="0 0 26.82 33.23">
    <g id="Calque_2">
        <g id="Calque_1-2">
            <line fill="none" stroke="#000" stroke-linecap="round" stroke-linejoin="round" x1="0.5" y1="32.73" x2="26.32" y2="32.73"/>
            <path fill="none" stroke="#000" stroke-linecap="round" stroke-linejoin="round" d="M6.6,26.66a3.61,3.61,0,0,1-4.9-1.34L.76,23.71a3.63,3.63,0,0,1,4.17.39,6.62,6.62,0,0,0,1.66,2.51l0,0Z"/>
            <path fill="none" stroke="#000" stroke-linecap="round" stroke-linejoin="round" d="M12.44,23.71l-.93,1.61A3.62,3.62,0,0,1,6.6,26.66l0,0,0,0a6.56,6.56,0,0,0,1.66-2.5A3.63,3.63,0,0,1,12.44,23.71Z"/>
            <path fill="none" stroke="#000" stroke-linecap="round" stroke-linejoin="round" d="M6.61,26.6v0h0l0,0,0,0,0,0Z"/>
            <path fill="none" stroke="#000" stroke-linecap="round" stroke-linejoin="round" d="M8.5,22.82a3.87,3.87,0,0,1-.23,1.28,6.56,6.56,0,0,1-1.66,2.5v0A6.62,6.62,0,0,1,4.93,24.1a3.87,3.87,0,0,1-.23-1.28A5.92,5.92,0,0,1,6.6,19,5.92,5.92,0,0,1,8.5,22.82Z"/>
            <path fill="none" stroke="#000" stroke-linecap="round" stroke-linejoin="round" d="M6.61,26.6v0h0v0Z"/>
            <line fill="none" stroke="#000" stroke-linecap="round" stroke-linejoin="round" x1="6.6" y1="26.62" x2="6.6" y2="32.44"/>
            <path fill="none" stroke="#000" stroke-linecap="round" stroke-linejoin="round" d="M20.22,26.66a3.61,3.61,0,0,1-4.9-1.34l-.94-1.61a3.63,3.63,0,0,1,4.17.39,6.62,6.62,0,0,0,1.66,2.51l0,0Z"/>
            <path fill="none" stroke="#000" stroke-linecap="round" stroke-linejoin="round" d="M26.06,23.71l-.93,1.61a3.62,3.62,0,0,1-4.91,1.34l0,0,0,0a6.56,6.56,0,0,0,1.66-2.5A3.63,3.63,0,0,1,26.06,23.71Z"/>
            <path fill="none" stroke="#000" stroke-linecap="round" stroke-linejoin="round" d="M20.23,26.6v0h0l0,0,0,0,0,0Z"/>
            <path fill="none" stroke="#000" stroke-linecap="round" stroke-linejoin="round" d="M22.12,22.82a3.87,3.87,0,0,1-.23,1.28,6.56,6.56,0,0,1-1.66,2.5v0a6.62,6.62,0,0,1-1.66-2.51,3.87,3.87,0,0,1-.23-1.28A5.92,5.92,0,0,1,20.22,19,5.92,5.92,0,0,1,22.12,22.82Z"/>
            <path fill="none" stroke="#000" stroke-linecap="round" stroke-linejoin="round" d="M20.23,26.6v0h0v0Z"/>
            <line fill="none" stroke="#000" stroke-linecap="round" stroke-linejoin="round" x1="20.22" y1="26.66" x2="20.22" y2="32.44"/>
            <circle fill="none" stroke="#000" stroke-linecap="round" stroke-linejoin="round" cx="13.41" cy="8.46" r="3.36"/>
            <line fill="none" stroke="#000" stroke-linecap="round" stroke-linejoin="round" x1="13.41" y1="2.8" x2="13.41" y2="0.5"/>
            <line fill="none" stroke="#000" stroke-linecap="round" stroke-linejoin="round" x1="10.58" y1="3.56" x2="9.43" y2="1.57"/>
            <line fill="none" stroke="#000" stroke-linecap="round" stroke-linejoin="round" x1="8.51" y1="5.63" x2="6.52" y2="4.48"/>
            <line fill="none" stroke="#000" stroke-linecap="round" stroke-linejoin="round" x1="7.75" y1="8.46" x2="5.45" y2="8.46"/>
            <line fill="none" stroke="#000" stroke-linecap="round" stroke-linejoin="round" x1="8.51" y1="11.29" x2="6.52" y2="12.44"/>
            <line fill="none" stroke="#000" stroke-linecap="round" stroke-linejoin="round" x1="10.58" y1="13.36" x2="9.43" y2="15.35"/>
            <line fill="none" stroke="#000" stroke-linecap="round" stroke-linejoin="round" x1="13.41" y1="14.12" x2="13.41" y2="16.42"/>
            <line fill="none" stroke="#000" stroke-linecap="round" stroke-linejoin="round" x1="16.24" y1="13.36" x2="17.39" y2="15.35"/>
            <line fill="none" stroke="#000" stroke-linecap="round" stroke-linejoin="round" x1="18.31" y1="11.29" x2="20.3" y2="12.44"/>
            <line fill="none" stroke="#000" stroke-linecap="round" stroke-linejoin="round" x1="19.07" y1="8.46" x2="21.37" y2="8.46"/>
            <line fill="none" stroke="#000" stroke-linecap="round" stroke-linejoin="round" x1="18.31" y1="5.63" x2="20.3" y2="4.48"/>
            <line fill="none" stroke="#000" stroke-linecap="round" stroke-linejoin="round" x1="16.24" y1="3.56" x2="17.39" y2="1.57"/>
        </g>
    </g>
</svg>