<svg xmlns="http://www.w3.org/2000/svg" viewBox="0 0 25.86 28.04">
    <g id="Calque_2">
        <g id="Calque_1-2">
            <path fill="none" stroke="#000" stroke-linecap="round" stroke-linejoin="round" d="M3,10.42a9.92,9.92,0,0,1,19.84,0"/>
            <path fill="none" stroke="#000" stroke-linecap="round" stroke-linejoin="round" d="M20.6,10.53h1.55a3.21,3.21,0,0,1,3.21,3.21v3.43a3.21,3.21,0,0,1-3.21,3.21H20.6a0,0,0,0,1,0,0V10.53A0,0,0,0,1,20.6,10.53Z"/>
            <path fill="none" stroke="#000" stroke-linecap="round" stroke-linejoin="round" d="M.5,10.53H2a3.21,3.21,0,0,1,3.21,3.21v3.43A3.21,3.21,0,0,1,2,20.38H.5a0,0,0,0,1,0,0V10.53A0,0,0,0,1,.5,10.53Z" transform="translate(5.76 30.92) rotate(180)"/>
            <path fill="none" stroke="#000" stroke-linecap="round" stroke-linejoin="round" d="M21.9,20.5v1.95a2.77,2.77,0,0,1-2.77,2.77H14.35"/>
            <circle fill="none" stroke="#000" stroke-linecap="round" stroke-linejoin="round" cx="12.04" cy="25.22" r="2.31"/>
        </g>
    </g>
</svg>