<svg xmlns="http://www.w3.org/2000/svg" viewBox="0 0 29.15 22.72">
    <g id="Calque_2">
        <g id="Calque_1-2">
            <path fill="none" stroke="#000" stroke-linecap="round" stroke-linejoin="round" d="M4.85,14.13c3.2,4.69,10.26,7.89,10.57,8a.58.58,0,0,0,.26.06.66.66,0,0,0,.27-.06c.33-.15,8.09-3.67,11-8.74,1.16-2,2.22-5.35,1.38-8.17A6.59,6.59,0,0,0,24.8,1.19,6.12,6.12,0,0,0,22,.5c-3.15,0-5.37,2.72-6.36,4.23C14.69,3.22,12.48.5,9.32.5a6.08,6.08,0,0,0-2.75.69A6.56,6.56,0,0,0,3,5.25a9.39,9.39,0,0,0,.08,5"/>
            <polyline fill="none" stroke="#000" stroke-linecap="round" stroke-linejoin="round" points="0.5 12.05 10.93 12.05 12.04 9.74 14.43 16.13 17.07 8.08 19.84 12.44 23.77 12.44"/>
        </g>
    </g>
</svg>