<svg xmlns="http://www.w3.org/2000/svg" viewBox="0 0 29.37 27.51">
    <g id="Calque_2">
        <g id="Calque_1-2">
            <path fill="none" stroke="#000" stroke-linecap="round" stroke-linejoin="round" d="M2.89,14.5a8.24,8.24,0,0,1,0-11.61h0a8.24,8.24,0,0,1,11.61,0"/>
            <path fill="none" stroke="#000" stroke-linecap="round" stroke-linejoin="round" d="M17.51,5.9l-4.87,4.88c-1,1-2.2,1.3-3.17.33h0c-1-1-.63-2.19.34-3.16l1.7-1.7,1-1,2.37-2.37a8.23,8.23,0,0,1,11.6,0h0a8.22,8.22,0,0,1,0,11.61"/>
            <path fill="none" stroke="#000" stroke-linecap="round" stroke-linejoin="round" d="M17.52,5.91,20.59,9h0l5.55,5.55c1,1,1.3,2.19.33,3.16h0c-1,1-2.19.63-3.16-.34L20.94,15l-1-1-1.87-1.87"/>
            <path fill="none" stroke="#000" stroke-linecap="round" stroke-linejoin="round" d="M18.43,12.5l4.87,4.87c1,1,1.31,2.2.34,3.16h0c-1,1-2.2.63-3.16-.33l-1.7-1.7-1-1-2.37-2.37"/>
            <path fill="none" stroke="#000" stroke-linecap="round" stroke-linejoin="round" d="M15.6,15.32l4.87,4.88c1,1,1.31,2.19.34,3.16h0c-1,1-2.19.63-3.16-.34"/>
            <rect fill="none" stroke="#000" stroke-linecap="round" stroke-linejoin="round" x="10.84" y="21.85" width="6.94" height="4.19" rx="2.1" transform="translate(-12.74 17.13) rotate(-45)"/>
            <rect fill="none" stroke="#000" stroke-linecap="round" stroke-linejoin="round" x="7.87" y="18.89" width="6.94" height="4.19" rx="2.1" transform="translate(-11.51 14.17) rotate(-45)"/>
            <rect fill="none" stroke="#000" stroke-linecap="round" stroke-linejoin="round" x="4.91" y="15.93" width="6.94" height="4.19" rx="2.1" transform="translate(-10.29 11.21) rotate(-45)"/>
            <rect fill="none" stroke="#000" stroke-linecap="round" stroke-linejoin="round" x="1.95" y="12.96" width="6.94" height="4.19" rx="2.1" transform="translate(-9.06 8.25) rotate(-45)"/>
        </g>
    </g>
</svg>