<svg xmlns="http://www.w3.org/2000/svg" width="40" height="40" viewBox="5 5 30 30">
    <g transform="translate(-113.979 -1982.166)">
        <path stroke="#000" stroke-linecap="round" stroke-linejoin="round" fill="currentColor"
              d="M2.071,0h21.45a2.071,2.071,0,0,1,2.071,2.071V17.549a0,0,0,0,1,0,0H0a0,0,0,0,1,0,0V2.071A2.071,2.071,0,0,1,2.071,0Z"
              transform="translate(121.183 1991.362)"/>
        <path stroke="#000" stroke-linecap="round" stroke-linejoin="round" fill="currentColor"
              d="M145.331,2012.971h-22.7a4.047,4.047,0,0,1-3.966-4.06H149.3A4.047,4.047,0,0,1,145.331,2012.971Z"/>
        <rect stroke="#000" stroke-linecap="round" stroke-linejoin="round" fill="currentColor" width="20.921"
              height="15.178" transform="translate(123.518 1993.733)"/>
        <line stroke="#000" stroke-linecap="round" stroke-linejoin="round" fill="none" x2="5.289"
              transform="translate(131.334 2010.941)"/>
    </g>
</svg>