<svg xmlns="http://www.w3.org/2000/svg" width="40" height="40" viewBox="5 5 30 30">
    <g transform="translate(-113.979 -2159.661)">
        <path stroke="#000" stroke-linecap="round" stroke-linejoin="round" fill="currentColor"
              d="M126.115,2192.7h1.055l.728-1.727a.277.277,0,0,1,.184-.161,5.209,5.209,0,0,0,1.191-.5.285.285,0,0,1,.245-.016l1.734.708.749-.744-.707-1.74a.281.281,0,0,1,.016-.245,5.072,5.072,0,0,0,.487-1.184.282.282,0,0,1,.161-.184l1.728-.728v-1.055l-1.728-.727a.287.287,0,0,1-.161-.184,5.127,5.127,0,0,0-.488-1.186.28.28,0,0,1-.015-.243l.707-1.734-.75-.751-1.741.709a.282.282,0,0,1-.245-.017,5.05,5.05,0,0,0-1.176-.487.279.279,0,0,1-.184-.161l-.728-1.728-1.056-.006-.733,1.734a.282.282,0,0,1-.183.161,5.409,5.409,0,0,0-1.181.489.282.282,0,0,1-.242.015l-1.741-.709-.75.751.707,1.734a.28.28,0,0,1-.015.243,5.16,5.16,0,0,0-.488,1.185.284.284,0,0,1-.161.185l-1.727.727v1.055l1.727.728a.279.279,0,0,1,.161.184,5.056,5.056,0,0,0,.487,1.184.281.281,0,0,1,.016.245l-.707,1.74.749.744,1.735-.708a.279.279,0,0,1,.245.016,5.053,5.053,0,0,0,1.183.5.281.281,0,0,1,.185.161Z"/>
        <path stroke="#000" stroke-linecap="round" stroke-linejoin="round" fill="currentColor"
              d="M126.646,2183.62a2.039,2.039,0,1,0,2.04,2.039A2.042,2.042,0,0,0,126.646,2183.62Z"/>
        <path stroke="#000" stroke-linecap="round" stroke-linejoin="round" fill="currentColor"
              d="M144.077,2190.006a2.133,2.133,0,1,1-4.267,0v-12.12a6.909,6.909,0,0,0,4.267,0Zm-2.13-11.782a6.4,6.4,0,0,1-3.754-11.6v3.815a.28.28,0,0,0,.1.213l3.474,2.989a.282.282,0,0,0,.366,0l3.467-2.989a.281.281,0,0,0,.1-.213v-3.82a6.408,6.408,0,0,1-3.747,11.6Z"/>
    </g>
</svg>