<svg xmlns="http://www.w3.org/2000/svg" width="40" height="40" viewBox="5 5 30 30">
    <g transform="translate(-113.979 -1893.419)">
        <rect stroke="#000" stroke-linecap="round" stroke-linejoin="round" fill="currentColor" width="26.754"
              height="12.28" rx="2.089" transform="translate(119.208 1913.419)"/>
        <path stroke="#000" stroke-linecap="round" stroke-linejoin="round" fill="currentColor"
              d="M122.272,1914.967l1.86,4.592-1.86,4.592"/>
        <path stroke="#000" stroke-linecap="round" stroke-linejoin="round" fill="currentColor"
              d="M124.674,1914.967l1.86,4.592-1.86,4.592"/>
        <path stroke="#000" stroke-linecap="round" stroke-linejoin="round" fill="currentColor"
              d="M127.076,1914.967l1.86,4.592-1.86,4.592"/>
        <path stroke="#000" stroke-linecap="round" stroke-linejoin="round" fill="currentColor"
              d="M129.479,1914.967l1.86,4.592-1.86,4.592"/>
        <path stroke="#000" stroke-linecap="round" stroke-linejoin="round" fill="currentColor"
              d="M131.881,1914.967l1.86,4.592-1.86,4.592"/>
        <path stroke="#000" stroke-linecap="round" stroke-linejoin="round" fill="currentColor"
              d="M134.283,1914.967l1.86,4.592-1.86,4.592"/>
        <path stroke="#000" stroke-linecap="round" stroke-linejoin="round" fill="currentColor"
              d="M136.686,1914.967l1.86,4.592-1.86,4.592"/>
        <path stroke="#000" stroke-linecap="round" stroke-linejoin="round" fill="currentColor"
              d="M139.088,1914.967l1.86,4.592-1.86,4.592"/>
        <path stroke="#000" stroke-linecap="round" stroke-linejoin="round" fill="currentColor"
              d="M141.49,1914.967l1.86,4.592-1.86,4.592"/>
        <rect stroke="#000" stroke-linecap="round" stroke-linejoin="round" fill="currentColor" width="26.754"
              height="12.28" rx="2.089" transform="translate(121.995 1901.139)"/>
        <path stroke="#000" stroke-linecap="round" stroke-linejoin="round" fill="currentColor"
              d="M125.059,1902.688l1.86,4.592-1.86,4.592"/>
        <path stroke="#000" stroke-linecap="round" stroke-linejoin="round" fill="currentColor"
              d="M127.461,1902.688l1.86,4.592-1.86,4.592"/>
        <path stroke="#000" stroke-linecap="round" stroke-linejoin="round" fill="currentColor"
              d="M129.863,1902.688l1.86,4.592-1.86,4.592"/>
        <path stroke="#000" stroke-linecap="round" stroke-linejoin="round" fill="currentColor"
              d="M132.266,1902.688l1.86,4.592-1.86,4.592"/>
        <path stroke="#000" stroke-linecap="round" stroke-linejoin="round" fill="currentColor"
              d="M134.668,1902.688l1.86,4.592-1.86,4.592"/>
        <path stroke="#000" stroke-linecap="round" stroke-linejoin="round" fill="currentColor"
              d="M137.07,1902.688l1.86,4.592-1.86,4.592"/>
        <path stroke="#000" stroke-linecap="round" stroke-linejoin="round" fill="currentColor"
              d="M139.473,1902.688l1.86,4.592-1.86,4.592"/>
        <path stroke="#000" stroke-linecap="round" stroke-linejoin="round" fill="currentColor"
              d="M141.875,1902.688l1.86,4.592-1.86,4.592"/>
        <path stroke="#000" stroke-linecap="round" stroke-linejoin="round" fill="currentColor"
              d="M144.277,1902.688l1.86,4.592-1.86,4.592"/>
    </g>
</svg>