<svg xmlns="http://www.w3.org/2000/svg" xmlns:xlink="http://www.w3.org/1999/xlink" viewBox="0 0 760 145">
    <linearGradient id="Degrade_sans_nom_21" x1="-116.12" y1="-763.3" x2="32.58" y2="-741.42"
                    gradientTransform="translate(-531.43 524.72) rotate(56.71)" gradientUnits="userSpaceOnUse">
        <stop offset="0" stop-color="#f1cb2b"/>
        <stop offset="1" stop-color="#f261b2"/>
    </linearGradient>
    <linearGradient id="Degrade_sans_nom_6" x1="35.05" y1="43.39" x2="81.08" y2="43.39"
                    gradientUnits="userSpaceOnUse">
        <stop offset="0" stop-color="#42c9e9"/>
        <stop offset="1" stop-color="#526cdb"/>
    </linearGradient>
    <linearGradient id="Degrade_sans_nom_3" x1="64.03" y1="101.72" x2="110.06" y2="101.72"
                    gradientTransform="matrix(1, 0, 0, 1, 0, 0)" xlink:href="#Degrade_sans_nom_21"/>
    <g id="Calque_2">
        <g id="Calque_1-2">
            <text font-size="41.38px" fill="#7c7a79" font-family="Poppins-Regular, Poppins"
                  letter-spacing="-0.02em" transform="translate(165.87 134.14)">DES SYNERGIES PRODUCTIVES
            </text>
            <path fill="#292827"
                  d="M223.71,75.36H194.47l-5.6,10.86H167.39L209.15,8.66l41.64,77.56H229.32ZM216.19,60.8l-7-13.6L202,60.8Z"/>
            <path fill="#292827" d="M277.52,27.27v59H258.9V27.27H238.73V8.66h59V27.27Z"/>
            <path fill="#292827" d="M359.72,69.51V86.22h-56V8.66h18.61V69.51Z"/>
            <path fill="#292827"
                  d="M418.66,75.36H389.43l-5.61,10.86H362.34L404.1,8.66l41.65,77.56H424.27ZM411.14,60.8l-7-13.6-7.16,13.6Z"/>
            <path fill="#292827"
                  d="M458.74,84.07A34.79,34.79,0,0,1,449,77.75c-9.07-8.35-7.87-19.45-7.87-20.53l16.34.24v-.12s0,4.42,1.91,7.28Q462.93,70,472.59,70c10.74,0,15.51-2.74,15.51-7.28,0-4.77-6.09-7.75-16-8.83a59.4,59.4,0,0,1-15.75-3.82,27.3,27.3,0,0,1-9.91-6.68,20,20,0,0,1-5.36-13.84,22.32,22.32,0,0,1,5.36-15c5.49-6.21,14.32-9.43,26.5-9.43,16,0,23.86,7,27.68,12.89a29.82,29.82,0,0,1,4.3,14.79H488.58v.12a10.72,10.72,0,0,0-1.79-6.08c-2.39-3.34-7.16-5.37-13.84-5.37-6.93,0-14.92,1.79-14.92,7,0,5,5.25,8,15.87,9.18,11.81,1.32,20.52,5,25.77,11.1a21.2,21.2,0,0,1,5.26,14,20.72,20.72,0,0,1-5.14,14.56,24.73,24.73,0,0,1-10.62,6.8,51.55,51.55,0,0,1-16.58,2.27A38.81,38.81,0,0,1,458.74,84.07Z"/>
            <path fill="url(#Degrade_sans_nom_21)"
                  d="M72.67,145.11a72.54,72.54,0,1,1,39.72-11.88h0A72.17,72.17,0,0,1,72.67,145.11ZM72.45,5.85a66.71,66.71,0,1,0,55.89,30.08A66.36,66.36,0,0,0,72.45,5.85Z"/>
            <circle fill="#f663b5" cx="101.72" cy="43.4" r="8.53"/>
            <circle fill="#f6d02c" cx="101.72" cy="72.56" r="8.53"/>
            <circle fill="#3c355d" cx="72.56" cy="72.56" r="8.53"/>
            <circle fill="#526cdb" cx="43.39" cy="72.56" r="8.53"/>
            <path fill="url(#Degrade_sans_nom_6)"
                  d="M72.56,34.87h0a8.54,8.54,0,0,0-8.27,6.43h0a1.09,1.09,0,0,1-1,.81H52.84a1.07,1.07,0,0,1-1-.79,8.53,8.53,0,0,0-8.27-6.45h0a8.53,8.53,0,0,0-8.53,8.52h0a8.53,8.53,0,0,0,8.53,8.53h0a8.53,8.53,0,0,0,8.27-6.45,1.06,1.06,0,0,1,1-.79H63.27a1.08,1.08,0,0,1,1,.81h0a8.54,8.54,0,0,0,8.27,6.44h0a8.52,8.52,0,0,0,8.52-8.53h0A8.52,8.52,0,0,0,72.56,34.87Z"/>
            <circle fill="#42c9e9" cx="43.39" cy="101.71" r="8.53"/>
            <path fill="url(#Degrade_sans_nom_3)"
                  d="M72.55,110.24h0a8.53,8.53,0,0,0,8.27-6.43h0a1.07,1.07,0,0,1,1-.8H92.27a1.07,1.07,0,0,1,1,.79,8.51,8.51,0,0,0,8.26,6.44h0a8.52,8.52,0,0,0,8.53-8.52h0a8.53,8.53,0,0,0-8.53-8.53h0a8.52,8.52,0,0,0-8.26,6.45,1.08,1.08,0,0,1-1,.79H81.84a1.08,1.08,0,0,1-1-.8h0a8.54,8.54,0,0,0-8.27-6.44h0A8.52,8.52,0,0,0,64,101.72h0A8.51,8.51,0,0,0,72.55,110.24Z"/>
        </g>
    </g>
</svg>