<svg 
    xmlns="http://www.w3.org/2000/svg" 
    xmlns:xlink="http://www.w3.org/1999/xlink" 
    viewBox="0 0 346.09 74.52"
>
    <defs>
        <linearGradient id="Degrade_sans_nom_20" x1="-618.58" y1="133.61" x2="-544.07" y2="133.61" gradientTransform="translate(468 449.88) rotate(56.71)" gradientUnits="userSpaceOnUse">
            <stop offset="0" stop-color="#f1cb2e"/>
            <stop offset="0.72" stop-color="#4fc1e2"/>
            <stop offset="1" stop-color="#e168a4"/>
        </linearGradient>
            <linearGradient id="Degrade_sans_nom_6" x1="18.01" y1="22.29" x2="41.63" y2="22.29" gradientUnits="userSpaceOnUse">
            <stop offset="0" stop-color="#4fc1e2"/>
            <stop offset="1" stop-color="#5066ae"/>
        </linearGradient>
        <linearGradient id="Degrade_sans_nom_3" x1="32.88" y1="52.23" x2="56.51" y2="52.23" gradientUnits="userSpaceOnUse">
            <stop offset="0" stop-color="#f1cb2e"/>
            <stop offset="1" stop-color="#e168a4"/>
        </linearGradient>
    </defs>
    <g id="Calque_2" data-name="Calque 2">
        <g id="Calque_1-2" data-name="Calque 1">
            <circle cx="37.26" cy="37.26" r="35.75" fill="none" stroke-miterlimit="10" stroke-width="3" stroke="url(#Degrade_sans_nom_20)"/>
            <path d="M114.84,38.7h-15L97,44.27h-11L107.37,4.46l21.38,39.81h-11ZM111,31.23l-3.61-7-3.67,7Z" fill="#1b1b1b"/>
            <path d="M142.46,14V44.27h-9.55V14H122.56V4.46h30.25V14Z" fill="#1b1b1b"/>
            <path d="M184.66,35.7v8.57H155.93V4.46h9.56V35.7Z" fill="#1b1b1b"/>
            <path d="M214.91,38.7h-15L197,44.27H186L207.44,4.46l21.38,39.81h-11Zm-3.86-7.47-3.61-7-3.68,7Z" fill="#1b1b1b"/>
            <path d="M235.49,43.17a17.77,17.77,0,0,1-5-3.25,13.16,13.16,0,0,1-4-10.53l8.39.12v-.06a7.88,7.88,0,0,0,1,3.74c1.23,1.83,3.49,2.75,6.8,2.75,5.51,0,8-1.41,8-3.73s-3.12-4-8.2-4.54a30.36,30.36,0,0,1-8.09-2,13.88,13.88,0,0,1-5.08-3.43,10.25,10.25,0,0,1-2.76-7.1,11.44,11.44,0,0,1,2.76-7.72c2.81-3.18,7.35-4.84,13.6-4.84C251,2.62,255,6.24,257,9.24a15.24,15.24,0,0,1,2.21,7.59H250.8v.06a5.52,5.52,0,0,0-.92-3.12c-1.23-1.72-3.68-2.76-7.1-2.76s-7.66.92-7.66,3.62,2.69,4.1,8.15,4.71c6.06.68,10.53,2.58,13.22,5.7a10.85,10.85,0,0,1,2.7,7.17,10.66,10.66,0,0,1-2.63,7.47,12.81,12.81,0,0,1-5.45,3.49,26.7,26.7,0,0,1-8.52,1.16A20,20,0,0,1,235.49,43.17Z" fill="#1b1b1b"/>
            <path d="M95.77,54.74a7,7,0,0,1,2.62,2.73,8.67,8.67,0,0,1,0,7.93,7.09,7.09,0,0,1-2.62,2.73,7.77,7.77,0,0,1-7.52,0A7,7,0,0,1,85.6,65.4a8.75,8.75,0,0,1,0-7.93,6.89,6.89,0,0,1,2.65-2.73,7.77,7.77,0,0,1,7.52,0Zm-6.52,1.54a5,5,0,0,0-1.92,2,7.35,7.35,0,0,0,0,6.22,4.94,4.94,0,0,0,1.92,2A5.41,5.41,0,0,0,92,67.3a5.33,5.33,0,0,0,2.75-.72,5.07,5.07,0,0,0,1.91-2.06,6.58,6.58,0,0,0,.69-3.09,6.66,6.66,0,0,0-.69-3.11,5,5,0,0,0-1.91-2,5.72,5.72,0,0,0-5.52,0Z" fill="#1b1b1b"/>
            <path d="M110,54v1.57h-6.54v5.18H109v1.51h-5.54v6.71h-1.94V54Z" fill="#1b1b1b"/>
            <path d="M118.63,62.9v6H116.7V54h4.76a5.42,5.42,0,0,1,3.84,1.2,4.29,4.29,0,0,1,1.28,3.28,4.18,4.18,0,0,1-1.32,3.28,5.49,5.49,0,0,1-3.8,1.18Zm5.2-2.36a2.78,2.78,0,0,0,.77-2.1,2.83,2.83,0,0,0-.77-2.14,3.69,3.69,0,0,0-2.54-.73h-2.66v5.72h2.66A3.59,3.59,0,0,0,123.83,60.54Z" fill="#1b1b1b"/>
            <path d="M136.35,68.93l-3.91-6.12h-2.1v6.12H128.4V54h4.93a5.32,5.32,0,0,1,3.83,1.22,4.26,4.26,0,0,1,1.27,3.24,4.17,4.17,0,0,1-1,2.94,4.75,4.75,0,0,1-2.95,1.39l4.08,6.18Zm-6-7.52h2.82q3.3,0,3.3-2.89c0-1.92-1.1-2.89-3.3-2.89h-2.82Z" fill="#1b1b1b"/>
            <path d="M151,54.74a6.91,6.91,0,0,1,2.63,2.73,8.75,8.75,0,0,1,0,7.93A7,7,0,0,1,151,68.13a7.27,7.27,0,0,1-3.74,1,7.44,7.44,0,0,1-3.78-1,7.07,7.07,0,0,1-2.64-2.73,8.67,8.67,0,0,1,0-7.93,6.94,6.94,0,0,1,2.64-2.73,7.44,7.44,0,0,1,3.78-1A7.27,7.27,0,0,1,151,54.74Zm-6.52,1.54a5,5,0,0,0-1.91,2,7.35,7.35,0,0,0,0,6.22,5,5,0,0,0,1.91,2,5.47,5.47,0,0,0,2.78.71,5.35,5.35,0,0,0,2.75-.72,5.07,5.07,0,0,0,1.91-2.06,6.58,6.58,0,0,0,.69-3.09,6.66,6.66,0,0,0-.69-3.11,5,5,0,0,0-1.91-2,5.74,5.74,0,0,0-5.53,0Z" fill="#1b1b1b"/>
            <path d="M168.44,65.4A6.26,6.26,0,0,1,165.76,68a9.05,9.05,0,0,1-4.26.92h-4.76V54h4.76a9.31,9.31,0,0,1,4.26.9,6.1,6.1,0,0,1,2.68,2.59,9,9,0,0,1,0,8Zm-2.61.28a5.62,5.62,0,0,0,1.55-4.25,5.72,5.72,0,0,0-1.54-4.26,6.13,6.13,0,0,0-4.49-1.51h-2.68V67.19h2.68A6.15,6.15,0,0,0,165.83,65.68Z" fill="#1b1b1b"/>
            <path d="M173.37,54v9a4.65,4.65,0,0,0,1,3.26,3.5,3.5,0,0,0,2.7,1,3.36,3.36,0,0,0,2.65-1.06,4.73,4.73,0,0,0,1-3.25V54h1.93v9a6.27,6.27,0,0,1-1.52,4.6,6.11,6.11,0,0,1-8.11,0,6.32,6.32,0,0,1-1.52-4.6V54Z" fill="#1b1b1b"/>
            <path d="M196.32,55.16a6.92,6.92,0,0,1,2.46,3.68h-2a5,5,0,0,0-1.85-2.37,5.41,5.41,0,0,0-3.12-.88,4.81,4.81,0,0,0-4.45,2.75,6.83,6.83,0,0,0-.67,3.12,6.69,6.69,0,0,0,.67,3.08,4.87,4.87,0,0,0,4.45,2.74,5.34,5.34,0,0,0,3.12-.89A4.93,4.93,0,0,0,196.74,64h2a6.92,6.92,0,0,1-2.46,3.68,7.32,7.32,0,0,1-4.53,1.35,7.07,7.07,0,0,1-3.72-1,6.65,6.65,0,0,1-2.51-2.69,8.32,8.32,0,0,1-.91-3.94,8.43,8.43,0,0,1,.91-4,6.71,6.71,0,0,1,2.51-2.71,7.16,7.16,0,0,1,3.72-1A7.32,7.32,0,0,1,196.32,55.16Z" fill="#1b1b1b"/>
            <path d="M210.12,54v1.57h-4.23v13.4H204V55.53h-4.23V54Z" fill="#1b1b1b"/>
            <path d="M213.54,54v15h-1.93V54Z" fill="#1b1b1b"/>
            <path d="M217.19,54l4.57,12.83L226.39,54h2.11l-5.51,15h-2.44l-5.48-15Z" fill="#1b1b1b"/>
            <path d="M232,55.53v5.12h5.69v1.48H232v5.23h6.33v1.57H230V54h8.26v1.57Z" fill="#1b1b1b"/>
            <path d="M254.13,67a3.78,3.78,0,0,1-1.55,1.49,5.28,5.28,0,0,1-2.57.57,6.16,6.16,0,0,1-2.64-.54,4.72,4.72,0,0,1-1.85-1.49,4.21,4.21,0,0,1-.8-2.15h2.06a3,3,0,0,0,.44,1.24,2.92,2.92,0,0,0,1.06,1,3.35,3.35,0,0,0,1.67.39,2.64,2.64,0,0,0,2-.68,2.32,2.32,0,0,0,.68-1.74,2.29,2.29,0,0,0-.47-1.49,3.5,3.5,0,0,0-1.18-.9A15.73,15.73,0,0,0,249,62a20.8,20.8,0,0,1-2.29-.88,3.87,3.87,0,0,1-1.46-1.25,3.57,3.57,0,0,1-.61-2.18,3.87,3.87,0,0,1,.56-2.07,3.8,3.8,0,0,1,1.62-1.38,5.88,5.88,0,0,1,2.47-.48,5.31,5.31,0,0,1,3.51,1.07,4.13,4.13,0,0,1,1.51,2.73h-2.09a2.74,2.74,0,0,0-.91-1.57,2.86,2.86,0,0,0-2-.68,2.78,2.78,0,0,0-1.87.6,2.18,2.18,0,0,0-.7,1.71A2.08,2.08,0,0,0,247.2,59a3,3,0,0,0,1.14.85,17.77,17.77,0,0,0,1.86.7,17.55,17.55,0,0,1,2.33.89A3.65,3.65,0,0,1,254.64,65,4,4,0,0,1,254.13,67Z" fill="#1b1b1b"/>
            <path d="M267.45,54l-4.9,9.3v5.67h-2V63.26L255.66,54h2.26l3.67,7.24L265.24,54Z" fill="#1b1b1b"/>
            <path d="M280.62,68.93h-1.93L270.92,57.1V68.93H269V54h1.94l7.77,11.85V54h1.93Z" fill="#1b1b1b"/>
            <path d="M285.23,55.53v5.12h5.7v1.48h-5.7v5.23h6.33v1.57H283.3V54h8.26v1.57Z" fill="#1b1b1b"/>
            <path d="M301.57,68.93l-3.91-6.12h-2.1v6.12h-1.94V54h4.93a5.28,5.28,0,0,1,3.82,1.22,4.27,4.27,0,0,1,1.28,3.24,4.17,4.17,0,0,1-1,2.94,4.75,4.75,0,0,1-2.95,1.39l4.08,6.18Zm-6-7.52h2.82c2.2,0,3.29-1,3.29-2.89s-1.09-2.89-3.29-2.89h-2.82Z" fill="#1b1b1b"/>
            <path d="M316.77,55.1a6.32,6.32,0,0,1,2.38,3.53h-2a4.6,4.6,0,0,0-1.78-2.19,5.2,5.2,0,0,0-2.94-.83,5.26,5.26,0,0,0-2.74.72,4.94,4.94,0,0,0-1.9,2,7.4,7.4,0,0,0,0,6.26,5,5,0,0,0,1.94,2,5.7,5.7,0,0,0,2.86.71,5.51,5.51,0,0,0,2.53-.59A5,5,0,0,0,317,65a5.91,5.91,0,0,0,.88-2.67H312V60.92h7.51v1.79a7.36,7.36,0,0,1-1.1,3.23,6.61,6.61,0,0,1-2.46,2.29,7.2,7.2,0,0,1-3.53.85,7.47,7.47,0,0,1-3.82-1,6.71,6.71,0,0,1-2.58-2.7,8.92,8.92,0,0,1,0-7.93,6.71,6.71,0,0,1,2.58-2.7,8,8,0,0,1,8.19.31Z" fill="#1b1b1b"/>
            <path d="M323.62,54v15h-1.94V54Z" fill="#1b1b1b"/>
            <path d="M328.23,55.53v5.12h5.69v1.48h-5.69v5.23h6.33v1.57h-8.27V54h8.27v1.57Z" fill="#1b1b1b"/>
            <path d="M345.58,67A3.85,3.85,0,0,1,344,68.51a5.28,5.28,0,0,1-2.57.57,6.16,6.16,0,0,1-2.64-.54A4.65,4.65,0,0,1,337,67.05a4.21,4.21,0,0,1-.8-2.15h2.06a3,3,0,0,0,1.5,2.24,3.33,3.33,0,0,0,1.67.39,2.64,2.64,0,0,0,2-.68,2.36,2.36,0,0,0,.68-1.74,2.24,2.24,0,0,0-.48-1.49,3.41,3.41,0,0,0-1.18-.9,14.54,14.54,0,0,0-1.91-.71,19.77,19.77,0,0,1-2.28-.88,3.9,3.9,0,0,1-1.47-1.25,3.63,3.63,0,0,1-.6-2.18,3.78,3.78,0,0,1,.56-2.07,3.71,3.71,0,0,1,1.61-1.38,5.93,5.93,0,0,1,2.48-.48,5.28,5.28,0,0,1,3.5,1.07,4.05,4.05,0,0,1,1.51,2.73h-2.08a2.79,2.79,0,0,0-.91-1.57,2.86,2.86,0,0,0-2-.68,2.78,2.78,0,0,0-1.87.6,2.15,2.15,0,0,0-.7,1.71,2.08,2.08,0,0,0,.46,1.41,3,3,0,0,0,1.13.85,18.09,18.09,0,0,0,1.87.7,18.11,18.11,0,0,1,2.33.89,4,4,0,0,1,1.49,1.28,3.8,3.8,0,0,1,.62,2.28A4,4,0,0,1,345.58,67Z" fill="#1b1b1b"/>
            <circle cx="52.23" cy="22.29" r="4.38" fill="#e36ba5"/>
            <circle cx="52.23" cy="37.26" r="4.38" fill="#f7d12e"/>
            <circle cx="37.26" cy="37.26" r="4.38" fill="#3d355d"/>
            <circle cx="22.29" cy="37.26" r="4.38" fill="#5066ae"/>
            <path d="M37.26,17.91h0A4.38,4.38,0,0,0,33,21.22h0a.56.56,0,0,1-.52.41H27.14a.55.55,0,0,1-.51-.41,4.39,4.39,0,0,0-4.25-3.31h0A4.38,4.38,0,0,0,18,22.29h0a4.37,4.37,0,0,0,4.37,4.37h0a4.38,4.38,0,0,0,4.25-3.3.53.53,0,0,1,.52-.41h5.34a.57.57,0,0,1,.53.41h0a4.37,4.37,0,0,0,4.24,3.3h0a4.36,4.36,0,0,0,4.37-4.37h0A4.37,4.37,0,0,0,37.26,17.91Z" fill="url(#Degrade_sans_nom_6)"/>
            <circle cx="22.29" cy="52.22" r="4.38" fill="#4fc1e2"/>
            <path d="M37.26,56.6h0a4.38,4.38,0,0,0,4.24-3.3h0a.56.56,0,0,1,.51-.41h5.37a.55.55,0,0,1,.51.4,4.37,4.37,0,0,0,4.24,3.31h0a4.38,4.38,0,0,0,4.38-4.37h0a4.38,4.38,0,0,0-4.38-4.38h0a4.37,4.37,0,0,0-4.24,3.31.55.55,0,0,1-.52.4H42a.53.53,0,0,1-.52-.41h0a4.39,4.39,0,0,0-4.24-3.3h0a4.38,4.38,0,0,0-4.38,4.38h0A4.38,4.38,0,0,0,37.26,56.6Z" fill="url(#Degrade_sans_nom_3)"/>
        </g>
    </g>
</svg>