<svg xmlns="http://www.w3.org/2000/svg" xmlns:xlink="http://www.w3.org/1999/xlink" viewBox="0 0 367.78 74.52"><defs><linearGradient id="Degrade_sans_nom_20" x1="-774.53" y1="217.77" x2="-700.02" y2="217.77" gradientTransform="translate(623.94 534.05) rotate(56.71)" gradientUnits="userSpaceOnUse"><stop offset="0" stop-color="#f1cb2e"/><stop offset="0.72" stop-color="#4fc1e2"/><stop offset="1" stop-color="#e168a4"/></linearGradient><linearGradient id="Degrade_sans_nom_6" x1="18.01" y1="22.29" x2="41.63" y2="22.29" gradientUnits="userSpaceOnUse"><stop offset="0" stop-color="#4fc1e2"/><stop offset="1" stop-color="#5066ae"/></linearGradient><linearGradient id="Degrade_sans_nom_3" x1="32.88" y1="52.23" x2="56.51" y2="52.23" gradientUnits="userSpaceOnUse"><stop offset="0" stop-color="#f1cb2e"/><stop offset="1" stop-color="#e168a4"/></linearGradient></defs><g id="Calque_2" data-name="Calque 2"><g id="Calque_1-2" data-name="Calque 1"><circle cx="37.26" cy="37.26" r="35.75" fill="none" stroke-miterlimit="10" stroke-width="3" stroke="url(#Degrade_sans_nom_20)"/><path d="M114.84,38.7h-15L97,44.27h-11L107.37,4.46l21.38,39.81h-11ZM111,31.23l-3.61-7-3.67,7Z" fill="#1b1b1b"/><path d="M142.46,14V44.27h-9.55V14H122.56V4.46h30.25V14Z" fill="#1b1b1b"/><path d="M184.66,35.7v8.57H155.93V4.46h9.56V35.7Z" fill="#1b1b1b"/><path d="M214.91,38.7h-15L197,44.27H186L207.44,4.46l21.38,39.81h-11Zm-3.86-7.47-3.61-7-3.68,7Z" fill="#1b1b1b"/><path d="M235.49,43.17a17.77,17.77,0,0,1-5-3.25,13.16,13.16,0,0,1-4-10.53l8.39.12v-.06a7.88,7.88,0,0,0,1,3.74c1.23,1.83,3.49,2.75,6.8,2.75,5.51,0,8-1.41,8-3.74s-3.12-4-8.2-4.53a30.36,30.36,0,0,1-8.09-2,13.88,13.88,0,0,1-5.08-3.43,10.25,10.25,0,0,1-2.76-7.1,11.44,11.44,0,0,1,2.76-7.72c2.81-3.18,7.35-4.84,13.6-4.84C251,2.62,255,6.24,257,9.24a15.24,15.24,0,0,1,2.21,7.59H250.8v.06a5.52,5.52,0,0,0-.92-3.12c-1.23-1.72-3.68-2.76-7.1-2.76s-7.66.92-7.66,3.62,2.69,4.1,8.15,4.71c6.06.68,10.53,2.58,13.22,5.7a10.84,10.84,0,0,1,2.7,7.16,10.67,10.67,0,0,1-2.63,7.48,12.81,12.81,0,0,1-5.45,3.49,26.7,26.7,0,0,1-8.52,1.16A20,20,0,0,1,235.49,43.17Z" fill="#1b1b1b"/><path d="M96.86,65.4A6.28,6.28,0,0,1,94.17,68a9.18,9.18,0,0,1-4.26.92H85.16V54h4.75a9.31,9.31,0,0,1,4.26.9,6.13,6.13,0,0,1,2.69,2.59,9.14,9.14,0,0,1,0,8Zm-2.61.28a5.66,5.66,0,0,0,1.55-4.25,5.72,5.72,0,0,0-1.54-4.26,6.16,6.16,0,0,0-4.49-1.51H87.09V67.19h2.68A6.16,6.16,0,0,0,94.25,65.68Z" fill="#1b1b1b"/><path d="M101.9,55.53v5.12h5.69v1.48H101.9v5.23h6.33v1.57H100V54h8.27v1.57Z" fill="#1b1b1b"/><path d="M119.25,67a3.91,3.91,0,0,1-1.55,1.49,5.28,5.28,0,0,1-2.57.57,6.24,6.24,0,0,1-2.65-.54,4.69,4.69,0,0,1-1.84-1.49,4.21,4.21,0,0,1-.8-2.15h2.06a3,3,0,0,0,1.5,2.24,3.33,3.33,0,0,0,1.67.39,2.66,2.66,0,0,0,2-.68,2.36,2.36,0,0,0,.68-1.74,2.24,2.24,0,0,0-.48-1.49,3.41,3.41,0,0,0-1.18-.9,15.11,15.11,0,0,0-1.91-.71,19.77,19.77,0,0,1-2.28-.88,3.82,3.82,0,0,1-1.47-1.25,3.63,3.63,0,0,1-.6-2.18,3.78,3.78,0,0,1,.56-2.07A3.71,3.71,0,0,1,112,54.25a5.93,5.93,0,0,1,2.48-.48,5.28,5.28,0,0,1,3.5,1.07,4.05,4.05,0,0,1,1.51,2.73h-2.08a2.79,2.79,0,0,0-.91-1.57,2.86,2.86,0,0,0-2-.68,2.78,2.78,0,0,0-1.87.6,2.44,2.44,0,0,0-.25,3.12,3.11,3.11,0,0,0,1.14.85,16.28,16.28,0,0,0,1.87.69,19.54,19.54,0,0,1,2.33.9,4,4,0,0,1,1.49,1.28,3.85,3.85,0,0,1,.62,2.28A4,4,0,0,1,119.25,67Z" fill="#1b1b1b"/><path d="M135.71,67a3.85,3.85,0,0,1-1.55,1.49,5.28,5.28,0,0,1-2.57.57,6.16,6.16,0,0,1-2.64-.54,4.72,4.72,0,0,1-1.85-1.49,4.21,4.21,0,0,1-.8-2.15h2.06a3,3,0,0,0,.44,1.24,2.92,2.92,0,0,0,1.06,1,3.35,3.35,0,0,0,1.67.39,2.64,2.64,0,0,0,1.95-.68,2.32,2.32,0,0,0,.68-1.74,2.24,2.24,0,0,0-.48-1.49,3.37,3.37,0,0,0-1.17-.9,15.35,15.35,0,0,0-1.92-.71,19.77,19.77,0,0,1-2.28-.88,4,4,0,0,1-1.47-1.25,3.63,3.63,0,0,1-.6-2.18,3.87,3.87,0,0,1,.56-2.07,3.8,3.8,0,0,1,1.62-1.38,5.88,5.88,0,0,1,2.47-.48,5.33,5.33,0,0,1,3.51,1.07,4.08,4.08,0,0,1,1.5,2.73h-2.08a2.79,2.79,0,0,0-.91-1.57,2.86,2.86,0,0,0-2-.68,2.78,2.78,0,0,0-1.87.6,2.15,2.15,0,0,0-.7,1.71,2.08,2.08,0,0,0,.46,1.41,3,3,0,0,0,1.13.85,17,17,0,0,0,1.87.69,18.88,18.88,0,0,1,2.33.9,3.9,3.9,0,0,1,1.5,1.28,3.85,3.85,0,0,1,.61,2.28A4,4,0,0,1,135.71,67Z" fill="#1b1b1b"/><path d="M149,54l-4.91,9.3v5.67h-2V63.26L137.24,54h2.25l3.68,7.24L146.82,54Z" fill="#1b1b1b"/><path d="M162.2,68.93h-1.93L152.49,57.1V68.93h-1.93V54h1.93l7.78,11.85V54h1.93Z" fill="#1b1b1b"/><path d="M166.81,55.53v5.12h5.69v1.48h-5.69v5.23h6.33v1.57h-8.26V54h8.26v1.57Z" fill="#1b1b1b"/><path d="M183.15,68.93l-3.91-6.12h-2.11v6.12H175.2V54h4.93A5.3,5.3,0,0,1,184,55.18a4.27,4.27,0,0,1,1.28,3.24,4.17,4.17,0,0,1-1,2.94,4.77,4.77,0,0,1-3,1.39l4.08,6.18Zm-6-7.52H180q3.28,0,3.29-2.89c0-1.92-1.1-2.89-3.29-2.89h-2.83Z" fill="#1b1b1b"/><path d="M198.34,55.1a6.28,6.28,0,0,1,2.39,3.53h-2a4.52,4.52,0,0,0-1.77-2.19,5.2,5.2,0,0,0-2.94-.83,5.26,5.26,0,0,0-2.74.72,4.94,4.94,0,0,0-1.9,2,7.4,7.4,0,0,0,0,6.26,5,5,0,0,0,1.94,2,5.7,5.7,0,0,0,2.86.71,5.51,5.51,0,0,0,2.53-.59A5,5,0,0,0,198.56,65a6,6,0,0,0,.88-2.67h-5.89V60.92h7.52v1.79a7.36,7.36,0,0,1-1.1,3.23,6.65,6.65,0,0,1-2.47,2.29,7.14,7.14,0,0,1-3.52.85,7.51,7.51,0,0,1-3.83-1,6.84,6.84,0,0,1-2.58-2.7,9,9,0,0,1,0-7.93,6.84,6.84,0,0,1,2.58-2.7,8,8,0,0,1,8.19.31Z" fill="#1b1b1b"/><path d="M205.19,54v15h-1.93V54Z" fill="#1b1b1b"/><path d="M209.8,55.53v5.12h5.7v1.48h-5.7v5.23h6.33v1.57h-8.26V54h8.26v1.57Z" fill="#1b1b1b"/><path d="M227.16,67a3.91,3.91,0,0,1-1.55,1.49,5.31,5.31,0,0,1-2.57.57,6.21,6.21,0,0,1-2.65-.54,4.72,4.72,0,0,1-1.85-1.49,4.2,4.2,0,0,1-.79-2.15h2.06a2.89,2.89,0,0,0,1.5,2.24,3.31,3.31,0,0,0,1.66.39,2.68,2.68,0,0,0,2-.68,2.36,2.36,0,0,0,.68-1.74,2.24,2.24,0,0,0-.48-1.49,3.41,3.41,0,0,0-1.18-.9A15.11,15.11,0,0,0,222,62a19.77,19.77,0,0,1-2.28-.88,3.82,3.82,0,0,1-1.47-1.25,3.63,3.63,0,0,1-.61-2.18,3.79,3.79,0,0,1,.57-2.07,3.71,3.71,0,0,1,1.61-1.38,5.93,5.93,0,0,1,2.48-.48,5.28,5.28,0,0,1,3.5,1.07,4.09,4.09,0,0,1,1.51,2.73h-2.08a2.82,2.82,0,0,0-2.93-2.25,2.76,2.76,0,0,0-1.87.6,2.44,2.44,0,0,0-.25,3.12,3.11,3.11,0,0,0,1.14.85,16.28,16.28,0,0,0,1.87.69,18.65,18.65,0,0,1,2.32.9,3.9,3.9,0,0,1,1.5,1.28,3.85,3.85,0,0,1,.62,2.28A4,4,0,0,1,227.16,67Z" fill="#1b1b1b"/><path d="M236.59,62.9v6h-1.93V54h4.75a5.43,5.43,0,0,1,3.85,1.2,4.28,4.28,0,0,1,1.27,3.28,4.17,4.17,0,0,1-1.31,3.28,5.52,5.52,0,0,1-3.81,1.18Zm5.19-2.36a2.75,2.75,0,0,0,.78-2.1,2.8,2.8,0,0,0-.78-2.14,3.65,3.65,0,0,0-2.54-.73h-2.65v5.72h2.65A3.55,3.55,0,0,0,241.78,60.54Z" fill="#1b1b1b"/><path d="M254.31,68.93l-3.91-6.12h-2.11v6.12h-1.93V54h4.93a5.3,5.3,0,0,1,3.82,1.22,4.27,4.27,0,0,1,1.28,3.24,4.17,4.17,0,0,1-1,2.94,4.77,4.77,0,0,1-3,1.39l4.08,6.18Zm-6-7.52h2.83q3.28,0,3.29-2.89c0-1.92-1.1-2.89-3.29-2.89h-2.83Z" fill="#1b1b1b"/><path d="M268.93,54.74a6.89,6.89,0,0,1,2.62,2.73,8.67,8.67,0,0,1,0,7.93,6.93,6.93,0,0,1-2.62,2.72,7.19,7.19,0,0,1-3.75,1,7.31,7.31,0,0,1-3.77-1,6.84,6.84,0,0,1-2.64-2.72,8.67,8.67,0,0,1,0-7.93,6.8,6.8,0,0,1,2.64-2.73,7.4,7.4,0,0,1,3.77-1A7.28,7.28,0,0,1,268.93,54.74Zm-6.52,1.54a5,5,0,0,0-1.91,2,7.35,7.35,0,0,0,0,6.22,4.84,4.84,0,0,0,1.91,2,5.65,5.65,0,0,0,5.52,0,5,5,0,0,0,1.91-2.06,6.58,6.58,0,0,0,.69-3.09,6.66,6.66,0,0,0-.69-3.11,5,5,0,0,0-1.91-2,5.72,5.72,0,0,0-5.52,0Z" fill="#1b1b1b"/><path d="M286.4,65.4A6.28,6.28,0,0,1,283.71,68a9.18,9.18,0,0,1-4.26.92H274.7V54h4.75a9.31,9.31,0,0,1,4.26.9,6.13,6.13,0,0,1,2.69,2.59,9.14,9.14,0,0,1,0,8Zm-2.61.28a5.66,5.66,0,0,0,1.55-4.25,5.72,5.72,0,0,0-1.54-4.26,6.16,6.16,0,0,0-4.49-1.51h-2.68V67.19h2.68A6.16,6.16,0,0,0,283.79,65.68Z" fill="#1b1b1b"/><path d="M291.33,54v9a4.62,4.62,0,0,0,1,3.26,3.5,3.5,0,0,0,2.69,1,3.39,3.39,0,0,0,2.66-1.06,4.73,4.73,0,0,0,.95-3.25V54h1.94v9a6.32,6.32,0,0,1-1.52,4.6,6.12,6.12,0,0,1-8.12,0,6.31,6.31,0,0,1-1.51-4.6V54Z" fill="#1b1b1b"/><path d="M314.27,55.16a6.87,6.87,0,0,1,2.46,3.68h-2a5.06,5.06,0,0,0-1.85-2.37,5.41,5.41,0,0,0-3.12-.88,4.78,4.78,0,0,0-4.45,2.75,6.82,6.82,0,0,0-.67,3.11,6.7,6.7,0,0,0,.67,3.09,4.84,4.84,0,0,0,4.45,2.74,5.34,5.34,0,0,0,3.12-.89A5,5,0,0,0,314.7,64h2a6.87,6.87,0,0,1-2.46,3.68,7.29,7.29,0,0,1-4.52,1.35,7,7,0,0,1-3.72-1,6.61,6.61,0,0,1-2.52-2.69,9.16,9.16,0,0,1,0-7.92A6.66,6.66,0,0,1,306,54.77a7.13,7.13,0,0,1,3.72-1A7.29,7.29,0,0,1,314.27,55.16Z" fill="#1b1b1b"/><path d="M328.08,54v1.57h-4.23v13.4h-1.93V55.53h-4.23V54Z" fill="#1b1b1b"/><path d="M331.5,54v15h-1.94V54Z" fill="#1b1b1b"/><path d="M335.15,54l4.57,12.83L344.35,54h2.1l-5.5,15h-2.44L333,54Z" fill="#1b1b1b"/><path d="M349.91,55.53v5.12h5.7v1.48h-5.7v5.23h6.33v1.57H348V54h8.26v1.57Z" fill="#1b1b1b"/><path d="M367.27,67a3.91,3.91,0,0,1-1.55,1.49,5.28,5.28,0,0,1-2.57.57,6.24,6.24,0,0,1-2.65-.54,4.69,4.69,0,0,1-1.84-1.49,4.12,4.12,0,0,1-.8-2.15h2.06a3,3,0,0,0,1.5,2.24,3.31,3.31,0,0,0,1.66.39,2.67,2.67,0,0,0,2-.68,2.36,2.36,0,0,0,.68-1.74,2.24,2.24,0,0,0-.48-1.49,3.41,3.41,0,0,0-1.18-.9,15.11,15.11,0,0,0-1.91-.71,19.77,19.77,0,0,1-2.28-.88,3.82,3.82,0,0,1-1.47-1.25,3.63,3.63,0,0,1-.6-2.18,3.78,3.78,0,0,1,.56-2.07A3.71,3.71,0,0,1,360,54.25a5.93,5.93,0,0,1,2.48-.48,5.28,5.28,0,0,1,3.5,1.07,4.05,4.05,0,0,1,1.51,2.73h-2.08a2.79,2.79,0,0,0-.91-1.57,2.86,2.86,0,0,0-2-.68,2.78,2.78,0,0,0-1.87.6,2.44,2.44,0,0,0-.25,3.12,3.11,3.11,0,0,0,1.14.85,16.28,16.28,0,0,0,1.87.69,19.54,19.54,0,0,1,2.33.9,4,4,0,0,1,1.49,1.28,3.85,3.85,0,0,1,.62,2.28A4,4,0,0,1,367.27,67Z" fill="#1b1b1b"/><circle cx="52.23" cy="22.29" r="4.38" fill="#e36ba5"/><circle cx="52.23" cy="37.26" r="4.38" fill="#f7d12e"/><circle cx="37.26" cy="37.26" r="4.38" fill="#3d355d"/><circle cx="22.29" cy="37.26" r="4.38" fill="#5066ae"/><path d="M37.26,17.91h0A4.38,4.38,0,0,0,33,21.22h0a.56.56,0,0,1-.52.41H27.14a.55.55,0,0,1-.51-.41,4.39,4.39,0,0,0-4.25-3.31h0A4.38,4.38,0,0,0,18,22.29h0a4.37,4.37,0,0,0,4.37,4.37h0a4.38,4.38,0,0,0,4.25-3.3.53.53,0,0,1,.52-.41h5.34a.57.57,0,0,1,.53.41h0a4.37,4.37,0,0,0,4.24,3.3h0a4.36,4.36,0,0,0,4.37-4.37h0A4.37,4.37,0,0,0,37.26,17.91Z" fill="url(#Degrade_sans_nom_6)"/><circle cx="22.29" cy="52.22" r="4.38" fill="#4fc1e2"/><path d="M37.26,56.6h0a4.38,4.38,0,0,0,4.24-3.3h0a.56.56,0,0,1,.51-.41h5.37a.55.55,0,0,1,.51.4,4.37,4.37,0,0,0,4.24,3.31h0a4.38,4.38,0,0,0,4.38-4.37h0a4.38,4.38,0,0,0-4.38-4.38h0a4.37,4.37,0,0,0-4.24,3.31.55.55,0,0,1-.52.4H42a.53.53,0,0,1-.52-.41h0a4.39,4.39,0,0,0-4.24-3.3h0a4.38,4.38,0,0,0-4.38,4.38h0A4.38,4.38,0,0,0,37.26,56.6Z" fill="url(#Degrade_sans_nom_3)"/></g></g></svg>