<svg xmlns="http://www.w3.org/2000/svg" width="77.881" height="40.25" viewBox="0 0 77.881 40.25">
    <path fill="#00223f"
          d="M1176.146,604.04a2.655,2.655,0,1,1-2.626,2.655,2.644,2.644,0,0,1,2.626-2.655m0-3.41a6.066,6.066,0,1,0,6,6.066,6.039,6.039,0,0,0-6-6.066"
          transform="translate(-1104.264 -572.575)"/>
    <rect fill="#00223f" width="3.696" height="12.115" transform="translate(60.636 27.96)"/>
    <path fill="#00223f"
          d="M1017.452,558.707a3.166,3.166,0,0,1-.8,2.27,2.86,2.86,0,0,1-4.047,0,3.609,3.609,0,0,1,0-4.541,2.86,2.86,0,0,1,4.047,0,3.17,3.17,0,0,1,.8,2.271m-.064-13.024v7.986a4.685,4.685,0,0,0-3.337-1.2,6.164,6.164,0,0,0-3.057.766,5.481,5.481,0,0,0-2.154,2.187,7.294,7.294,0,0,0,0,6.559,5.505,5.505,0,0,0,2.154,2.189,6.187,6.187,0,0,0,3.057.764,4.719,4.719,0,0,0,3.489-1.287v1.112h3.544V545.683Z"
          transform="translate(-962.774 -524.688)"/>
    <path fill="#00223f"
          d="M907.488,599.893v5.992a3.265,3.265,0,0,1-.7,2.272,2.356,2.356,0,0,1-1.838.749c-1.485,0-2.207-.88-2.207-2.693v-6.321h-3.7v6.826a5.542,5.542,0,0,0,1.392,4.082,5.1,5.1,0,0,0,3.752,1.382,5.2,5.2,0,0,0,2.079-.418,4.68,4.68,0,0,0,1.387-.927v1.171h3.523V599.893Z"
          transform="translate(-867.615 -571.933)"/>
    <path fill="#00223f"
          d="M823.762,580.182l-.11.051a2.139,2.139,0,0,1-.908.193,1.236,1.236,0,0,1-.96-.358,1.476,1.476,0,0,1-.337-1.043V574.11h3.082v-2.946h-3.082v-4.23l-3.7,2.158v2.072h-1.823v2.946h1.823v4.959a4.3,4.3,0,0,0,1.188,3.273,4.675,4.675,0,0,0,3.328,1.117,6.351,6.351,0,0,0,1.567-.19,3.674,3.674,0,0,0,1.27-.578l.064-.047Z"
          transform="translate(-795.056 -543.209)"/>
    <path fill="#00223f"
          d="M719.328,577.549l-.07-.023c-2.316-.735-2.483-1.14-2.483-1.721,0-.78.635-1.245,1.7-1.245a2.537,2.537,0,0,1,2.492,1.692l.242.543,2.9-1.694-.209-.447a5.792,5.792,0,0,0-5.423-3.464c-2.531,0-5.092,1.606-5.092,4.676,0,3.018,2.239,3.953,4.732,4.715,2.288.711,2.847,1.073,2.847,1.842,0,.857-.766,1.348-2.1,1.348a2.911,2.911,0,0,1-3.025-2.059l-.214-.614-2.943,1.742.149.42c.869,2.467,3.045,3.882,5.972,3.882,3.376,0,5.558-1.868,5.558-4.758,0-3.213-2.554-4.038-5.025-4.835"
          transform="translate(-704.923 -546.919)"/>
    <path fill="#00acda" d="M1130.428,473.1a1.908,1.908,0,1,0,1.887,1.908,1.9,1.9,0,0,0-1.887-1.908"
          transform="translate(-1067.944 -461.434)"/>
    <path fill="#00223f"
          d="M1025.114,408.428a4.938,4.938,0,0,0-3.611-1.36,5.961,5.961,0,0,0-2.249.417,4.759,4.759,0,0,0-1.456.915v-1.157h-3.544v12.115h3.7v-5.992a3.205,3.205,0,0,1,.715-2.27,2.537,2.537,0,0,1,1.926-.751,2.075,2.075,0,0,1,1.64.638,2.967,2.967,0,0,1,.568,1.989v6.387h3.7v-6.913a5.426,5.426,0,0,0-1.382-4.016"
          transform="translate(-968.181 -403.884)"/>
    <path fill="#00223f"
          d="M911.709,412.736h-5.374a2.612,2.612,0,0,1,.868-1.52,2.755,2.755,0,0,1,1.829-.62,2.7,2.7,0,0,1,1.809.631,2.655,2.655,0,0,1,.867,1.509m2.719-2.08a5.571,5.571,0,0,0-2.242-2.2,7,7,0,0,0-6.426.033,5.9,5.9,0,0,0-2.3,2.229,6.284,6.284,0,0,0-.835,3.207,6.189,6.189,0,0,0,.847,3.217,5.856,5.856,0,0,0,2.4,2.219,7.741,7.741,0,0,0,3.564.8,6.789,6.789,0,0,0,3.95-1.084l.12-.084-1.563-2.64-.137.1a3.553,3.553,0,0,1-.724.394,4.319,4.319,0,0,1-1.56.262,3.566,3.566,0,0,1-2.123-.606,2.583,2.583,0,0,1-1.018-1.447h8.774l.018-.249c.044-.595.058-.785.058-.83a6.609,6.609,0,0,0-.814-3.313"
          transform="translate(-870.74 -404.428)"/>
    <path fill="#00223f"
          d="M797.779,413.3a3.2,3.2,0,0,1-.792,2.271,2.634,2.634,0,0,1-2.023.838,2.661,2.661,0,0,1-2.025-.838,3.653,3.653,0,0,1,0-4.543,2.666,2.666,0,0,1,2.025-.838,2.638,2.638,0,0,1,2.023.838,3.2,3.2,0,0,1,.792,2.272m2.96-3.268a5.574,5.574,0,0,0-2.152-2.188,6.074,6.074,0,0,0-3.038-.777,4.75,4.75,0,0,0-3.508,1.286v-1.112H788.5v17.6h3.7v-6.512a4.736,4.736,0,0,0,3.357,1.2,6.07,6.07,0,0,0,3.038-.777,5.57,5.57,0,0,0,2.151-2.187,7.228,7.228,0,0,0,0-6.535"
          transform="translate(-771.11 -403.886)"/>
    <path fill="#00223f"
          d="M659.426,385.83a4.3,4.3,0,1,1-4.252,4.3,4.281,4.281,0,0,1,4.252-4.3m0-3.539a7.838,7.838,0,1,0,7.751,7.839,7.8,7.8,0,0,0-7.751-7.839"
          transform="translate(-651.674 -382.291)"/>
    <path fill="#00acda"
          d="M712.674,382.291h0v3.539h0a4.232,4.232,0,0,1,3.464,1.815l2.89-2A7.722,7.722,0,0,0,712.674,382.291Z"
          transform="translate(-704.923 -382.291)"/>
</svg>