<svg xmlns="http://www.w3.org/2000/svg" xmlns:xlink="http://www.w3.org/1999/xlink" width="60.217" height="58.936" viewBox="0 0 60.217 58.936">
    <defs><style>.UCA-a{fill:url(#UCA-a);}.UCA-b{fill:url(#UCA-b);}</style>
        <linearGradient id="UCA-a" x1="0.018" y1="-92.383" x2="0.828" y2="-92.113" gradientUnits="objectBoundingBox"><stop offset="0.706" stop-color="#2e6c82"/><stop offset="0.967" stop-color="#1e465a"/></linearGradient><linearGradient id="UCA-b" y1="-91.608" x2="1" y2="-91.608" gradientUnits="objectBoundingBox"><stop offset="0" stop-color="#3c7a8c"/><stop offset="0.502" stop-color="#4c8694"/><stop offset="0.997" stop-color="#61959d"/></linearGradient></defs><path class="UCA-a" d="M1642.688,137.49a11.574,11.574,0,0,1-15.763,2.193c-.04-.03-.079-.05-.118-.079a11.635,11.635,0,0,1-4.787-9.394v-8.485a2.432,2.432,0,0,1,2.428-2.42h.059a2.423,2.423,0,0,1,2.418,2.42v9.147a6.717,6.717,0,1,0,13.434,0v-.306A11.316,11.316,0,0,0,1642.688,137.49Z" transform="translate(-1621.221 -119.305)"/><path class="UCA-b" d="M1717.547,138.972c-.582-.405-1.372-1.1-1.372-1.916v-6.924a10.823,10.823,0,0,0-21.647,0v.444a6.639,6.639,0,0,1-13.019,1.986v-.01a6.925,6.925,0,0,1,.237-4.613,6.65,6.65,0,0,1,6.13-4.149,6.226,6.226,0,0,1,1.885.277c.158.05.316.1.464.158a2.465,2.465,0,0,0,.543.059,2.258,2.258,0,0,0,1.036-4.237h-.01c-.208-.089-.415-.158-.622-.227a.036.036,0,0,0-.03-.01,10.885,10.885,0,0,0-9.4,1.383,11.428,11.428,0,0,0-2.577,16.3,10.871,10.871,0,0,0,15.359,2.065,11.3,11.3,0,0,0,4.373-8.406v-.425c0-.109,0-.217.01-.326v-.01a6.445,6.445,0,0,1,12.881.336v6.717a4.871,4.871,0,0,0,2,4.01,2.611,2.611,0,0,0,1.619.553,2.04,2.04,0,0,0,.76-.217,4.314,4.314,0,0,0,1.629-1.7.833.833,0,0,0-.256-1.116Zm-12.19-11.162a2.707,2.707,0,1,0,2.7,2.706A2.71,2.71,0,0,0,1705.357,127.81Z" transform="translate(-1657.703 -119.305)"/><path fill="#58595a" d="M1623.706,233.556a3.272,3.272,0,0,0,3.233-2.725h-1.431a1.839,1.839,0,0,1-1.788,1.322,1.863,1.863,0,0,1-1.884-1.955v-2.643a1.879,1.879,0,0,1,3.672-.633h1.431a3.278,3.278,0,0,0-6.506.523V230.2a3.094,3.094,0,0,0,.454,1.762,3.285,3.285,0,0,0,2.82,1.6Zm7.153-.082h.784v-1.239h-.317c-.358,0-.468-.028-.564-.138s-.1-.138-.1-.578v-7.227h-1.307v7.461c0,.675.042.826.316,1.17a1.494,1.494,0,0,0,1.183.551Zm5.6.082a3.1,3.1,0,0,0,2.393-1.087l-1-.853a1.739,1.739,0,0,1-1.375.633,1.449,1.449,0,0,1-1.554-1.4v-.179H1639v-.991a2.7,2.7,0,1,0-5.406-.165v1.156a2.749,2.749,0,0,0,.454,1.652,2.884,2.884,0,0,0,2.407,1.239Zm-.151-5.438a1.386,1.386,0,0,1,1.389,1.391H1634.9a1.388,1.388,0,0,1,1.4-1.39Zm8.611.358.922-1.143a2.184,2.184,0,0,0-1.4-.5,2.239,2.239,0,0,0-1.72.8v-.716h-1.307v6.553h1.307v-3.964a1.326,1.326,0,0,1,2.2-1.032Zm9.739-1.638a2.447,2.447,0,0,0-1.926.881,2.183,2.183,0,0,0-1.775-.881,2.27,2.27,0,0,0-1.733.8v-.716h-1.307v6.553h1.307v-3.882a1.309,1.309,0,0,1,1.321-1.459,1.327,1.327,0,0,1,.922.385,1.239,1.239,0,0,1,.385,1.074v3.882h1.307v-3.882a1.327,1.327,0,0,1,2.435-.854,1.312,1.312,0,0,1,.207.853v3.882h1.293v-4.061a2.332,2.332,0,0,0-.468-1.556,2.389,2.389,0,0,0-1.967-1.018Zm7.607,0a2.694,2.694,0,0,0-2.71,2.643v1.391a2.7,2.7,0,0,0,5.406,0v-1.391A2.708,2.708,0,0,0,1662.263,226.838Zm1.389,4.033a1.419,1.419,0,0,1-1.389,1.376,1.4,1.4,0,0,1-1.4-1.376v-1.391a1.406,1.406,0,0,1,1.4-1.335,1.384,1.384,0,0,1,1.389,1.335Zm9.038,2.6v-4.405a2.185,2.185,0,0,0-2.187-2.23,2.249,2.249,0,0,0-1.733.8v-.716h-1.321v6.553h1.321v-4.047a1.344,1.344,0,0,1,1.32-1.294,1.319,1.319,0,0,1,1.293,1.294v4.047Zm2.792-1.707a1.483,1.483,0,0,0,.3,1.143,1.53,1.53,0,0,0,1.4.564h.592v-1.239h-.412c-.454,0-.578-.1-.578-.468v-3.786h.991v-1.06h-.991v-1.968h-1.307v1.968h-.646v1.06h.646v3.786Zm-52.463,4.379-3.384,9.182h1.485l.7-2.051h3.508l.7,2.051h1.458l-3.329-9.182h-1.142Zm-.8,5.892,1.362-4.006,1.334,4.006Zm10.867.441a1.7,1.7,0,0,1-.137.909,1.317,1.317,0,0,1-1.17.7,1.345,1.345,0,0,1-1.141-.633,1.381,1.381,0,0,1-.179-.895v-3.786h-1.306V243a2.053,2.053,0,0,0,.4,1.459,2.23,2.23,0,0,0,1.816.95,2.141,2.141,0,0,0,1.719-.826v.744h1.307v-6.553h-1.307v3.7Zm6.176.867-1.568-4.57h-1.389l2.393,6.553h1.142l2.366-6.553h-1.389Zm7.1-4.653a2.7,2.7,0,0,0-2.71,2.671v1.156a2.751,2.751,0,0,0,.454,1.652,2.883,2.883,0,0,0,2.407,1.239,3.1,3.1,0,0,0,2.393-1.087l-1-.854a1.74,1.74,0,0,1-1.376.633,1.449,1.449,0,0,1-1.554-1.4v-.179h4.085v-.991a2.685,2.685,0,0,0-2.7-2.836Zm-1.4,2.671a1.4,1.4,0,0,1,2.792,0Zm7.634-1.872v-.716h-1.307v6.553h1.307v-3.965a1.326,1.326,0,0,1,2.2-1.032l.922-1.143a2.185,2.185,0,0,0-1.4-.5,2.239,2.239,0,0,0-1.72.8Zm8.584.014a2.157,2.157,0,0,0-1.706-.812,2.218,2.218,0,0,0-2.215,2.368v2.01a2.212,2.212,0,0,0,3.921,1.528v.482a1.54,1.54,0,0,1-.165.964,1.432,1.432,0,0,1-1.307.7,1.582,1.582,0,0,1-1.279-.633l-1.018.854a3.052,3.052,0,0,0,2.325,1.06,2.753,2.753,0,0,0,2.38-1.308,2.508,2.508,0,0,0,.385-1.625v-6.318h-1.32v.73Zm0,3.166a1.332,1.332,0,0,1-.124.7,1.3,1.3,0,0,1-2.476-.564v-1.473a1.313,1.313,0,0,1,1.307-1.335,1.293,1.293,0,0,1,1.293,1.335v1.335Zm6.932-3.978a2.251,2.251,0,0,0-1.733.8v-.716h-1.32v6.553h1.32V241.28a1.344,1.344,0,0,1,1.321-1.294,1.32,1.32,0,0,1,1.293,1.294v4.047h1.307v-4.405a2.186,2.186,0,0,0-2.187-2.23Zm9.877,3.827v-.991a2.7,2.7,0,1,0-5.406-.165v1.156a2.753,2.753,0,0,0,.454,1.652,2.885,2.885,0,0,0,2.408,1.239,3.1,3.1,0,0,0,2.393-1.087l-1-.854a1.74,1.74,0,0,1-1.376.633,1.449,1.449,0,0,1-1.555-1.4v-.179Zm-4.1-1.156a1.4,1.4,0,0,1,2.792,0Z" transform="translate(-1619.634 -189.089)"/><path fill="#2d6b81" d="M1626.809,202.9c0,.954-.409,1.349-1.119,1.349s-1.119-.395-1.119-1.349v-2.77h-1.162v2.813a2.273,2.273,0,1,0,4.546,0v-2.813h-1.147Zm7.185.28-2.5-3.05h-.961v5.023h1.148V202.1l2.5,3.05h.953v-5.023h-1.147v3.05Zm3.771,1.974h1.161v-5.023h-1.161Zm5.879-1.435-1.527-3.588h-1.255l2.166,5.023h1.147l2.173-5.023h-1.155Zm5.708-.66h2.331v-.9h-2.331v-1.091h2.639v-.933H1648.2v5.023h3.887v-.933h-2.732v-1.162Zm9.443-1.105c0-1.127-.839-1.823-2.18-1.823h-2.173v5.023h1.162v-1.4h1.068l.968,1.4h1.248l-1.126-1.615a1.633,1.633,0,0,0,1.033-1.586Zm-2.244.875h-.946v-1.751h.946c.71,0,1.068.323,1.068.875S1657.26,202.824,1656.551,202.824Zm5.456-1.277c0-.316.265-.574.954-.574a2.833,2.833,0,0,1,1.391.395l.359-.882a3.365,3.365,0,0,0-1.743-.445c-1.427,0-2.115.71-2.115,1.564,0,1.866,2.918,1.22,2.918,2.16,0,.309-.279.538-.968.538a2.952,2.952,0,0,1-1.657-.524l-.394.875a3.575,3.575,0,0,0,2.044.581c1.434,0,2.13-.717,2.13-1.557,0-1.844-2.919-1.206-2.919-2.131Zm5.148,3.6h1.162v-5.023h-1.162v5.023Zm3.22-4.076h1.606v4.076h1.162v-4.076h1.606v-.947h-4.374v.947Zm9.852-2.39h-1.2l-.968,1.033h.875l1.3-1.033Zm-2.266,5.533v-1.162h2.331v-.9h-2.33v-1.091h2.639v-.933h-3.793v5.023h3.887v-.933h-2.732Z" transform="translate(-1622.147 -172.109)"/></svg>